<?xml version="1.0" encoding="UTF-8"?>
<svg id="Layer_2" data-name="Layer 2" xmlns="http://www.w3.org/2000/svg" viewBox="0 0 179.07 54.68">
  <defs>
    <style>
      .cls-1 {
        fill: #421218;
      }
    </style>
  </defs>
  <g id="Layer_1-2" data-name="Layer 1">
    <g>
      <path class="cls-1" d="M35.42,38.33l-7.45,3.62c-1.99.96-3.88,1.99-5.98,2.63-3.43,1.06-6.45,2.73-9.63,4.38l-10.97,5.72c-2.42-2.6-.97-13.34-.73-17.48.21-3.58.43-6.94,1.04-10.49.3-1.76.71-3.59.53-5.36l-.57-5.66c-.14-1.4,1-13.9,1.77-15.69l1.19.02c.88.01-.08,4.2.99,6.18.92,1.7,3.09,2.26,4.79,2.87l3.71,1.33,5.48,2.01c6.11,2.24,12.86,5.34,16.24,11.3.72,1.27.94,2.79,1.42,4.08.87,2.34,1.04,4.69.89,7.13-.12,1.92-.98,2.57-2.73,3.42h0ZM26.3,36.54c2.8-.52,3.31-10.05,1.33-12-1.63-1.61-4.08-1.46-6.09-1.78-6.75-1.08-9.41-.68-15.9,0l-.84,8.2c-.98,5.09-.36,8.72.64,13.98l9.36-5.18c3.51-1.94,7.45-2.47,11.48-3.23h0Z"/>
      <path class="cls-1" d="M99.9,37.29c-.14-2.04-1.09-8.13-1.09-8.13-.06-.91-.43-2.2-1.12-2.62-1.89-1.15-3.5-2.31-5.18-3.52-2.35-1.69-3.18-3.87-3.14-6.71.04-2.98,0-5.97.24-9.01.2-2.54.21-4.87.78-7.31.56,3.64,1.06,6.46,2.97,9.3l3.92,5.8c2.77,4.11,3.71,8.09,3.93,12.86l1.01,11.58c.13,2.68.26,5.12-1.36,7.4-.19.27-.62.15-.63-.18l-.32-8.46s.02-.75,0-1Z"/>
      <path class="cls-1" d="M142.36,20.32c-.1.29-.67.84-.92.79-1.16-.23-1.62-3.24-4.53-2.38l-4.05,1.19c-1.4.41-2.7-.39-2.99-1.68-.81-3.59-.4-6.95.32-10.51.51-2.52.94-5.22,1.98-7.58.59-1.07,1.59,4.31,2.22,6.11,1.1,3.15,4.56,1.77,7.26,4.1,2.15,1.85,2.56,4.88,1.64,7.43l-.92,2.54h0Z"/>
      <path class="cls-1" d="M50.93,22.8c-.1.29-.67.84-.92.79-1.16-.23-1.62-3.24-4.53-2.38l-4.05,1.19c-1.4.41-2.7-.39-2.99-1.68-.81-3.59-.4-6.95.32-10.51.51-2.52.94-5.22,1.98-7.58.59-1.07,1.59,4.31,2.22,6.11,1.1,3.15,4.56,1.77,7.26,4.1,2.15,1.85,2.56,4.88,1.64,7.43l-.92,2.54h0Z"/>
      <path class="cls-1" d="M131.77,32.06c-.01-.06,1.95,12.83-.28,10.56l-1.79-8.14c-.47-2.13-1.35-4.07-2.87-5.65-3.77-3.92-13.65.86-19.46-4.21-2.16-1.88-3.02-5.3-2.92-8.16.2-5.61.89-10.87,2.09-16.45,1.32,1.93.93,3.78,1.32,5.65.48,2.33,1.93,4.17,3.49,5.91,1.62,1.8,3.43,3.09,5.75,3.94,8.38,3.07,11.97,3.24,13.75,11.98l.93,4.58h0Z"/>
      <path class="cls-1" d="M49.69,42.44c9.19-5.23,20.65-9.21,31.09-10.74.55-.08,1.39-.57,1.6-.97s-.15-1.54-.16-2c-.03-4.09-.36-7.72-1.46-11.73-2.73-.3-5.21-.41-7.91-.44-5.17-.07-4.97-.98-9.72-1.51-1.09,3.33,5.05,1.72,5.42,6.09l.4,4.75c.03.37-.22,1.28-.52,1.48s-1.11-.05-1.44-.27c-1.68-1.06-3.14-1.72-5.01-2.6-1.08-.51-1.5-2.77-1.52-3.98l-.09-6.31c-1.91-.46-2.92-1.84-2.87-3.7l.29-9.08c.02-.51.51-1.35.91-1.42.46-.08,1.35.73,1.34,1.29-.1,5.54,10.27,7.77,14.42,8.63l2.91.6c1.37.28,3.4.2,4.34,1.2,1.3,2.44,1.28,5.1,1.83,7.67.59,2.75,1.06,5.3,1.32,8.14.3,3.29,1.4,6.1.85,8.72-2.31,1.04-4.54,1.92-6.93,2.48-5.74,1.35-10.84,3.43-16.03,6.2s-9.99,5.67-14.49,9.75c-2.31-1.6-1.63-7.16-1.29-9.42.25-1.66,1.52-2.14,2.71-2.82h0Z"/>
      <path class="cls-1" d="M165.03,39.51l-1.72,1.44c-.67,1.28-1.31,2.63-2.48,3.38-3.31,2.12-6.26,4.35-9.15,6.98l-3.37,3.07c-.12.11-.4.25-.54.29-1.03.35-.33-6.83-.25-7.5l.71-6.14c.22-1.88,1.71-1.27,5.52-3.45,2.17-1.24,4.31-2.36,6.57-3.48.99-.49,1.72-1.27,1.31-2.53-.86-2.6-1.68-5.16-2.41-7.83-.6-2.22-2.43-9.38-5.68-8.65-1.26.28-2.31.54-3.61.05l.87-12.02c.08-1.08.18-2.06.66-3.14l5.69,2.72c.87.41.67,2.55,1,3.43,1.01,2.72,2.07,5.62,2.66,8.55l1.32,6.59c.74-.7,1.38-1.38,1.89-2.21l4.34-6.96c1.48-2.37.79-4.11,1.79-5.09.24-.23.94.03,1.42.13l6.7,1.34c1.06,1.89,1.03,4.35.18,6.39-2.03,1.27-6.52-.29-7.59,1.59l-2.08,3.63c-1.26,2.21-3.25,4.25-4.12,6.69.67,4.26.72,8.11.38,12.69h0Z"/>
    </g>
  </g>
</svg>